<?xml version="1.0" encoding="utf-8"?>
<svg xmlns="http://www.w3.org/2000/svg" width="47" height="31" viewBox="0 0 47 31"><g transform="translate(-1588 -734.643)"><g transform="translate(-25)"><rect width="47" height="31" rx="3" transform="translate(1613 734.643)" fill="#00549e"/></g><path d="M22.411,113.966l-4.176,9.24h5l.62-1.473H25.27l.62,1.473h5.5v-1.124l.49,1.124h2.846l.49-1.148v1.148H46.662l1.391-1.435,1.3,1.435,5.877.012-4.189-4.606,4.189-4.646H49.447l-1.354,1.409-1.262-1.409H34.382l-1.069,2.385-1.094-2.385H27.231v1.086l-.555-1.086Zm.967,1.312h2.437l2.77,6.266v-6.266h2.669l2.139,4.493,1.972-4.493H38.02v6.631H36.4l-.013-5.2-2.356,5.2H32.589l-2.369-5.2v5.2H26.9l-.63-1.487H22.86l-.629,1.485H20.45Zm16.121,0H46.07l2.01,2.171,2.075-2.171h2.01l-3.054,3.333,3.054,3.294h-2.1l-2.01-2.2-2.085,2.2H39.5v-6.627ZM24.563,116.4l-1.122,2.648h2.242Zm16.558.251v1.21h3.585v1.349H41.121v1.321h4.021l1.868-1.946-1.789-1.936h-4.1Z" transform="translate(1574.766 631.677)" fill="#fff"/></g></svg>