<?xml version="1.0" encoding="utf-8"?>
<svg xmlns="http://www.w3.org/2000/svg" xmlns:xlink="http://www.w3.org/1999/xlink" width="162.538" height="35.473" viewBox="0 0 162.538 35.473"><defs><clipPath id="a"><rect width="162.538" height="35.473" fill="#1d1d1b"/></clipPath></defs><rect width="158.02" height="2.681" transform="translate(0.069 32.793)" fill="#1d1d1b"/><g clip-path="url(#a)"><path d="M651.711,24.075a11.865,11.865,0,0,0,6.427,2.4,16.056,16.056,0,0,0,7.585-1.019,9.056,9.056,0,0,0,5.507-10.623,6.678,6.678,0,0,0-1.838-3.208c1.131-.2,2.215-.319,3.253-.6,3.233-.879,4.785-3.237,4.276-6.384A4.594,4.594,0,0,0,672.138.77a2.765,2.765,0,0,0-2.465,1.759A1.29,1.29,0,0,0,671,4.382a1.84,1.84,0,0,0,1.68-1.172c.471-.874,1.047-1.061,1.879-.531a3.1,3.1,0,0,1,1.02,1.088,3.376,3.376,0,0,1-.542,3.652,5.113,5.113,0,0,1-3.835,1.528c-1.835.036-3.672-.092-5.508-.083-3.008.014-5.638,1.9-5.306,5.574a3.2,3.2,0,0,0,3.672,3.052,1.588,1.588,0,0,0,1.457-1.564,1.437,1.437,0,0,0-1.35-1.6,4.019,4.019,0,0,0-1.455.272c-.945.3-1.533-.09-1.563-1.082a2.268,2.268,0,0,1,1.584-2.127,7.322,7.322,0,0,1,3.383-.334,4.341,4.341,0,0,1,4.024,3.336,6.978,6.978,0,0,1-3.291,7.795,11.817,11.817,0,0,1-5.68,1.438,12.8,12.8,0,0,1-7.1-1.682c-2.983-1.8-4.806-4.29-4.369-7.978a4.442,4.442,0,0,1,2.325-3.445,4.769,4.769,0,0,0,2.609,1.349,1.735,1.735,0,0,0,2.049-1.116,1.584,1.584,0,0,0-1.407-2.007,5.547,5.547,0,0,0-1.927.054.8.8,0,0,1-.851-.257,3.818,3.818,0,0,1-.934-3.186,3.065,3.065,0,0,1,1.8-2.61,2.89,2.89,0,0,1,3.216.351,3.473,3.473,0,0,0,.942.521,1.285,1.285,0,0,0,1.453-.287,1.328,1.328,0,0,0-.115-1.576,1.9,1.9,0,0,0-.848-.646A7.669,7.669,0,0,0,656,.784a5.43,5.43,0,0,0-5.335,5.255,6.652,6.652,0,0,0,.837,3.71c-.151.139-.264.257-.391.356a7.394,7.394,0,0,0-2.987,5.229,9.214,9.214,0,0,0,3.584,8.741" transform="translate(-577.169 -0.681)" fill="#1d1d1b"/><rect width="158.023" height="0.886" transform="translate(0.085 30.42)" fill="#1d1d1b"/><path d="M4.946,23.605a12.22,12.22,0,0,0,6.091,2.1A10.983,10.983,0,0,0,18,24.274a33.89,33.89,0,0,0,2.779-2.156l1.157,2.546h.609v-8.6h-.568a36.517,36.517,0,0,1-1.167,3.511,8.183,8.183,0,0,1-9.564,4.943c-3.169-.625-5.1-2.775-6.15-5.735a17.379,17.379,0,0,1-.814-7.19A17.083,17.083,0,0,1,5.53,5.945c1.269-2.916,3.34-4.8,6.657-5A8.35,8.35,0,0,1,20.76,6.137a37.814,37.814,0,0,1,1.206,3.714h.624C22.524,6.7,22.46,3.6,22.4.474H21.6a9.768,9.768,0,0,1-1,3.182c-.238-.256-.412-.467-.611-.651A11.411,11.411,0,0,0,10.415.115,10.9,10.9,0,0,0,1.474,6.648,15.378,15.378,0,0,0,.3,16.312a11.087,11.087,0,0,0,4.644,7.294" transform="translate(0 0)" fill="#1d1d1b"/><path d="M956.115,22.614a8.913,8.913,0,0,0,6.043,3.129,8.542,8.542,0,0,0,5.911-1.393,7.311,7.311,0,0,0,2.486-7.9,6.539,6.539,0,0,0-3.445-4.088c-1.787-.953-3.652-1.76-5.488-2.621A11.138,11.138,0,0,1,958,7.358a3.722,3.722,0,0,1,1.545-6.141,5.658,5.658,0,0,1,4.584.449,7.352,7.352,0,0,1,3.54,4.751c.156.549.413.7.935.535V.5c-.691-.051-.653-.037-.876.575-.2.535-.489,1.034-.778,1.629-.193-.182-.277-.252-.351-.332A7.189,7.189,0,0,0,959.448.227a5.694,5.694,0,0,0-4.64,4.256,6.24,6.24,0,0,0,1.745,6.487,17.294,17.294,0,0,0,4.89,2.912,39.218,39.218,0,0,1,4.505,2.269,4.405,4.405,0,0,1,1.189,6.771,5.731,5.731,0,0,1-5.882,1.815,6.645,6.645,0,0,1-4.93-4.275c-.473-1.082-.77-2.242-1.155-3.39h-.78v7.943h.809l.917-2.4" transform="translate(-849.991 -0.023)" fill="#1d1d1b"/><path d="M1297.925,103.043c-.073,0-.146,0-.219,0-.85-.027-1.263-.321-1.377-1.16a21.349,21.349,0,0,1-.139-2.5c-.039-2.365.015-4.734-.107-7.094a3.857,3.857,0,0,0-2.478-3.611,5.6,5.6,0,0,0-5.13.4,30.515,30.515,0,0,0-2.756,2.084c-.1-.686-.2-1.45-.331-2.21-.119-.715-.232-.752-.93-.587q-1.584.376-3.186.674c-.762.141-.768.111-.631.872.374.041.75.09,1.127.123a1.077,1.077,0,0,1,1.106.933,14.389,14.389,0,0,1,.19,2c.023,2.185.016,4.37,0,6.555,0,.708-.04,1.417-.093,2.123a1.336,1.336,0,0,1-1.479,1.392c-.286.006-.572,0-.878,0v.877h7.492c.063-.866.063-.866-.752-.877-1.006-.013-1.38-.321-1.54-1.307a6.925,6.925,0,0,1-.1-1.083c-.008-2.367.02-4.735-.02-7.1a2.06,2.06,0,0,1,.589-1.6,8.944,8.944,0,0,1,2.721-2.231,2.9,2.9,0,0,1,3.962,1.118,4.33,4.33,0,0,1,.477,1.711c.047,3,.044,6,.009,9-.012,1.036-.56,1.475-1.619,1.492-.284,0-.567.024-.847.037v.838h7.6c.09-.872.09-.872-.67-.876" transform="translate(-1140.496 -78.588)" fill="#1d1d1b"/><path d="M1134.252,104.816h.087a7.793,7.793,0,0,0,7.967-8.358,7.931,7.931,0,0,0-8.006-7.844h-.009a7.931,7.931,0,0,0-8.006,7.844,7.793,7.793,0,0,0,7.967,8.358m-4.4-12.087a4.653,4.653,0,0,1,8.893,0,14.863,14.863,0,0,1,.287,7.048,5.2,5.2,0,0,1-1.257,2.783,4.609,4.609,0,0,1-3.468,1.438h-.017a4.608,4.608,0,0,1-3.468-1.438,5.2,5.2,0,0,1-1.257-2.783,14.864,14.864,0,0,1,.287-7.048" transform="translate(-1003.081 -78.92)" fill="#1d1d1b"/><path d="M231.913,104.816H232a7.793,7.793,0,0,0,7.967-8.358,7.931,7.931,0,0,0-8.006-7.844h-.009a7.931,7.931,0,0,0-8.006,7.844,7.793,7.793,0,0,0,7.967,8.358m-4.4-12.087a4.653,4.653,0,0,1,8.893,0,14.862,14.862,0,0,1,.287,7.048,5.2,5.2,0,0,1-1.257,2.783A4.608,4.608,0,0,1,231.97,104h-.018a4.608,4.608,0,0,1-3.468-1.438,5.2,5.2,0,0,1-1.257-2.783,14.864,14.864,0,0,1,.287-7.048" transform="translate(-199.447 -78.92)" fill="#1d1d1b"/><path d="M388.281,25.656c-.366,0-.707.006-1.047,0-.915-.02-1.332-.324-1.438-1.217a23.38,23.38,0,0,1-.134-2.716q-.016-9.88-.006-19.761V1.351l-5.094.849c-.1.707-.1.707.658.736a1.606,1.606,0,0,1,1.716,1.478,12.714,12.714,0,0,1,.1,1.521q.01,7.97,0,15.94c0,.762-.041,1.525-.094,2.285a1.406,1.406,0,0,1-1.615,1.5c-.323,0-.646.027-.988.042v.806h7.944Z" transform="translate(-338.732 -1.203)" fill="#1d1d1b"/><path d="M474.333,104.273a5.779,5.779,0,0,0,3.327-3.4c-.8-.112-.793-.111-1.156.483a4.957,4.957,0,0,1-5.156,2.4,4.152,4.152,0,0,1-3.5-2.891,15.5,15.5,0,0,1-.662-6.6h10.435a5.779,5.779,0,0,0-1.931-4.164,6.916,6.916,0,0,0-9.959,1.337,9.278,9.278,0,0,0-1.538,6.877,7.479,7.479,0,0,0,10.14,5.954m-3.151-14.88a3.054,3.054,0,0,1,3.3,3.089c.012.307,0,.615,0,.99h-7.154c.177-2.156,1.347-4.047,3.855-4.079" transform="translate(-413.322 -78.88)" fill="#1d1d1b"/><path d="M1437.591,45.819a2.714,2.714,0,0,0-1.1-1.086,2.942,2.942,0,0,0-2.89,0,2.712,2.712,0,0,0-1.1,1.086,2.943,2.943,0,0,0-.006,2.938,2.747,2.747,0,0,0,1.088,1.088,2.952,2.952,0,0,0,2.925,0,2.743,2.743,0,0,0,1.091-1.088,2.942,2.942,0,0,0-.006-2.938m-.216,2.809a2.515,2.515,0,0,1-1,1,2.682,2.682,0,0,1-2.672,0,2.521,2.521,0,0,1-.993-1,2.69,2.69,0,0,1,.006-2.681,2.487,2.487,0,0,1,1-.993,2.679,2.679,0,0,1,2.642,0,2.488,2.488,0,0,1,1,.993,2.69,2.69,0,0,1,.006,2.681" transform="translate(-1275.449 -39.501)" fill="#1d1d1b"/><path d="M1446.492,57.786l-.866-1.236a1.409,1.409,0,0,0,.707-.367.8.8,0,0,0,.214-.554.838.838,0,0,0-.315-.657,1.366,1.366,0,0,0-.916-.272h-1.6v.149a.491.491,0,0,1,.263.052.263.263,0,0,1,.106.147,2.684,2.684,0,0,1,.013.361v2.169a1.407,1.407,0,0,1-.029.386.274.274,0,0,1-.121.139.6.6,0,0,1-.282.048v.137h1.522v-.137a.742.742,0,0,1-.371-.062.287.287,0,0,1-.118-.2V56.608h.315l1.219,1.679h.763v-.137a.492.492,0,0,1-.22-.062,1.222,1.222,0,0,1-.282-.3m-1.8-1.356V54.95a1.067,1.067,0,0,1,.348-.066.824.824,0,0,1,.6.228.755.755,0,0,1,.234.564.667.667,0,0,1-.12.392.778.778,0,0,1-.346.267,1.97,1.97,0,0,1-.715.1" transform="translate(-1285.745 -48.717)" fill="#1d1d1b"/></g></svg>