<?xml version="1.0" encoding="utf-8"?>
<svg xmlns="http://www.w3.org/2000/svg" width="55.297" height="49.248" viewBox="0 0 55.297 49.248"><path d="M655.032,45.277a22.657,22.657,0,0,0,12.274,4.582,30.66,30.66,0,0,0,14.484-1.945,17.293,17.293,0,0,0,10.516-20.286A12.753,12.753,0,0,0,688.8,21.5c2.159-.389,4.229-.609,6.212-1.148,6.174-1.679,9.137-6.181,8.166-12.19A8.773,8.773,0,0,0,694.04.776a5.28,5.28,0,0,0-4.708,3.359c-.694,2.048.4,3.545,2.542,3.538a3.514,3.514,0,0,0,3.209-2.239c.9-1.67,2-2.027,3.588-1.014A5.925,5.925,0,0,1,700.618,6.5a6.447,6.447,0,0,1-1.035,6.973,9.764,9.764,0,0,1-7.323,2.917c-3.5.069-7.012-.175-10.518-.159-5.745.028-10.765,3.628-10.133,10.643a6.113,6.113,0,0,0,7.012,5.828,3.032,3.032,0,0,0,2.782-2.986,2.744,2.744,0,0,0-2.579-3.06,7.673,7.673,0,0,0-2.779.52c-1.8.568-2.928-.172-2.985-2.065a4.331,4.331,0,0,1,3.025-4.061,13.982,13.982,0,0,1,6.461-.638,8.29,8.29,0,0,1,7.683,6.371,13.324,13.324,0,0,1-6.284,14.885A22.564,22.564,0,0,1,673.1,44.412,24.446,24.446,0,0,1,659.542,41.2c-5.7-3.434-9.177-8.192-8.342-15.234a8.483,8.483,0,0,1,4.441-6.578c2.16,1.771,3.225,2.317,4.983,2.577,1.874.277,3.605-.666,3.913-2.131A3.025,3.025,0,0,0,661.851,16a10.593,10.593,0,0,0-3.679.1,1.527,1.527,0,0,1-1.625-.491,7.291,7.291,0,0,1-1.783-6.083A5.853,5.853,0,0,1,658.2,4.547a5.519,5.519,0,0,1,6.141.671,6.631,6.631,0,0,0,1.8,1,2.454,2.454,0,0,0,2.774-.548,2.535,2.535,0,0,0-.219-3.009,3.633,3.633,0,0,0-1.62-1.234A14.645,14.645,0,0,0,663.228.8,10.369,10.369,0,0,0,653.04,10.836a12.7,12.7,0,0,0,1.6,7.084c-.289.265-.5.49-.747.681a14.119,14.119,0,0,0-5.7,9.986c-.7,6.807,1.423,12.441,6.843,16.691" transform="translate(-648.059 -0.764)" fill="#fff"/></svg>