<?xml version="1.0" encoding="utf-8"?>
<svg xmlns="http://www.w3.org/2000/svg" width="47" height="31" viewBox="0 0 47 31"><g transform="translate(-1657 -734.643)"><g transform="translate(-18)"><rect width="47" height="31" rx="3" transform="translate(1675 734.643)" fill="#fff"/></g><g transform="translate(1666 741.085)"><circle cx="9" cy="9" r="9" transform="translate(0 -0.442)" fill="#c6001f"/><path d="M9,0A9,9,0,1,1,0,9,9,9,0,0,1,9,0Z" transform="translate(12)" fill="#007bb2"/><path d="M0,6.706A8.972,8.972,0,0,1,3,0,8.975,8.975,0,0,1,6,6.706a8.98,8.98,0,0,1-3,6.709A8.977,8.977,0,0,1,0,6.706Z" transform="translate(11.999 2.293)" fill="#4f579f"/></g></g></svg>