<?xml version="1.0" encoding="UTF-8"?>
<svg xmlns="http://www.w3.org/2000/svg" width="29.248" height="29.301" viewBox="0 0 29.248 29.301"><g transform="translate(-393.057 -102.783)"><path d="M20.305,6.8a6.623,6.623,0,0,1,5.232,5.232M20.305,1.5a11.921,11.921,0,0,1,10.53,10.517m-1.325,10.57v3.974a2.649,2.649,0,0,1-2.888,2.649,26.213,26.213,0,0,1-11.431-4.066A25.829,25.829,0,0,1,7.245,17.2,26.213,26.213,0,0,1,3.179,5.712,2.649,2.649,0,0,1,5.814,2.825H9.788A2.649,2.649,0,0,1,12.437,5.1a17.007,17.007,0,0,0,.927,3.722,2.649,2.649,0,0,1-.6,2.795L11.086,13.3a21.193,21.193,0,0,0,7.947,7.947l1.682-1.682a2.649,2.649,0,0,1,2.795-.6,17.008,17.008,0,0,0,3.722.927A2.649,2.649,0,0,1,29.511,22.587Z" transform="translate(390.641 102.111)" fill="none" stroke="#000" stroke-linecap="round" stroke-linejoin="round" stroke-width="1.5"/></g></svg>