<?xml version="1.0" encoding="utf-8"?>
<svg xmlns="http://www.w3.org/2000/svg" width="42" height="38" viewBox="0 0 42 38"><g fill="none" stroke-linejoin="round"><path d="M20.09,2A1,1,0,0,1,21.91,2l4.834,10.636a1,1,0,0,0,.821.582L39.6,14.3a1,1,0,0,1,.553,1.762l-9,7.541a1,1,0,0,0-.331,1l2.632,11.182a1,1,0,0,1-1.464,1.1l-10.5-5.913a1,1,0,0,0-.981,0l-10.5,5.913a1,1,0,0,1-1.464-1.1L11.175,24.6a1,1,0,0,0-.331-1l-9-7.541A1,1,0,0,1,2.4,14.3l12.036-1.078a1,1,0,0,0,.821-.582Z" stroke="none"/><path d="M 21.00000381469727 3.625423431396484 L 16.62158203125 13.25958061218262 C 16.24994277954102 14.07729148864746 15.46334266662598 14.63506126403809 14.5687313079834 14.7152214050293 L 3.732891082763672 15.68621826171875 L 11.80745124816895 22.45388031005859 C 12.53555107116699 23.06415939331055 12.8526725769043 24.01774978637695 12.63505172729492 24.94255065917969 L 10.26459503173828 35.01552581787109 L 19.77346229553223 29.66168975830078 C 20.14709281921387 29.45133209228516 20.57123184204102 29.34012985229492 21.00000190734863 29.34012985229492 C 21.42877197265625 29.34012985229492 21.85290145874023 29.45133209228516 22.22653198242188 29.66170120239258 L 31.73540496826172 35.01551818847656 L 29.36494064331055 24.94253158569336 C 29.14733123779297 24.01774978637695 29.46445083618164 23.06415176391602 30.19257164001465 22.4538516998291 L 38.26712036132812 15.68621063232422 L 27.4312629699707 14.7152214050293 C 26.53664207458496 14.63506126403809 25.75003242492676 14.07728004455566 25.3784122467041 13.25956153869629 L 21.00000381469727 3.625423431396484 M 20.99999809265137 1.416946411132812 C 21.36638259887695 1.416946411132812 21.73276710510254 1.61236572265625 21.91039276123047 2.003200531005859 L 26.74400329589844 12.63894081115723 C 26.89295196533203 12.96669006347656 27.20658111572266 13.1890811920166 27.56514167785645 13.22121047973633 L 39.60066223144531 14.29970169067383 C 40.48727035522461 14.379150390625 40.83599090576172 15.49032020568848 40.15376281738281 16.06212043762207 L 31.15611267089844 23.60346031188965 C 30.86659240722656 23.84613037109375 30.73853302001953 24.23122024536133 30.8250617980957 24.59894180297852 L 33.45658111572266 35.78128051757812 C 33.65611267089844 36.6291618347168 32.75156402587891 37.3090705871582 31.99255180358887 36.88172149658203 L 21.4906120300293 30.9687614440918 C 21.18601989746094 30.79726028442383 20.8139820098877 30.79726028442383 20.5093822479248 30.9687614440918 L 10.00744247436523 36.88172149658203 C 9.248432159423828 37.30906677246094 8.343879699707031 36.6291618347168 8.543411254882812 35.78128051757812 L 11.17494201660156 24.59894180297852 C 11.26147270202637 24.23122024536133 11.13340187072754 23.84613037109375 10.84389114379883 23.60346984863281 L 1.846233367919922 16.06212043762207 C 1.164012908935547 15.49032020568848 1.512733459472656 14.37915992736816 2.399341583251953 14.29971122741699 L 14.43485260009766 13.22121047973633 C 14.79342269897461 13.1890811920166 15.10704231262207 12.96669006347656 15.25599098205566 12.63895034790039 L 20.0896110534668 2.003200531005859 C 20.26723098754883 1.61236572265625 20.63361358642578 1.416946411132812 20.99999809265137 1.416946411132812 Z" stroke="none" fill="#00101d"/></g></svg>