<?xml version="1.0" encoding="utf-8"?>
<svg xmlns="http://www.w3.org/2000/svg" width="47" height="31" viewBox="0 0 47 31"><g transform="translate(-1789 -732.643)"><rect width="47" height="31" rx="3" transform="translate(1789 732.643)" fill="#fff"/><path d="M25.267,12.919a7.229,7.229,0,0,0-2.52-.436c-2.781,0-4.744,1.4-4.758,3.411-.017,1.477,1.4,2.309,2.464,2.8,1.1.507,1.463.826,1.46,1.282-.007.691-.876,1-1.683,1a5.954,5.954,0,0,1-2.652-.543l-.346-.161-.393,2.315a9.412,9.412,0,0,0,3.15.543c2.956,0,4.888-1.392,4.912-3.533.023-1.178-.739-2.071-2.348-2.807-.976-.478-1.585-.8-1.585-1.283,0-.429.52-.886,1.606-.886a5.156,5.156,0,0,1,2.107.4l.261.117.393-2.236-.068.014Zm7.217-.246H30.312a1.406,1.406,0,0,0-1.479.856l-4.179,9.464h2.956l.591-1.55,3.607,0c.088.362.348,1.547.348,1.547h2.606Zm-18.493-.087h2.814l-1.76,10.326H12.23l1.761-10.329ZM6.838,18.277l.293,1.434,2.753-7.038h2.982L8.433,22.978H5.458L3.024,14.25a.576.576,0,0,0-.261-.343A11.893,11.893,0,0,0,0,12.883l.036-.217H4.571a1.178,1.178,0,0,1,1.279.875l.988,4.741v0ZM29.01,19.33l1.123-2.888c-.014.029.232-.6.374-.985l.193.891.65,2.979H29.01v0Z" transform="translate(1795.119 730.16)" fill="#012065"/></g></svg>